<mxfile host="app.diagrams.net" agent="Mozilla/5.0 (X11; Linux x86_64; rv:144.0) Gecko/20100101 Firefox/144.0" version="28.2.8">
  <diagram id="cCYTb3VyOIaRYEK4TRq9" name="Context-Diagram">
    <mxGraphModel dx="1166" dy="950" grid="1" gridSize="10" guides="1" tooltips="1" connect="1" arrows="1" fold="1" page="1" pageScale="1" pageWidth="850" pageHeight="1100" math="0" shadow="0">
      <root>
        <mxCell id="0" />
        <mxCell id="1" parent="0" />
        <mxCell id="kAjX3kNmUyB3gXyYBEr3-2" value="" style="group" vertex="1" connectable="0" parent="1">
          <mxGeometry x="320" y="360" width="200" height="140" as="geometry" />
        </mxCell>
        <mxCell id="yj0HGoABKljQMS_cgf4L-2" value="&lt;p id=&quot;docs-internal-guid-45073f4a-7fff-7f0b-cadb-dc2f2aa1e4ce&quot; style=&quot;line-height:1.38;text-align: center;margin-top:12pt;margin-bottom:12pt;&quot; dir=&quot;ltr&quot;&gt;&lt;span style=&quot;font-size: 12pt; font-family: Phetsarath, sans-serif; background-color: transparent; font-weight: 700; font-style: normal; font-variant: normal; text-decoration-skip-ink: none; vertical-align: baseline; white-space: pre-wrap; text-decoration-color: currentcolor;&quot;&gt;ລະບົບກວດຈັບແລະຕອບສະຫນອງໄພຄຸກຄາມດ້ວຍການໃຊ້ປັນຍາ&lt;/span&gt;&lt;span style=&quot;font-size: 12pt; font-family: Phetsarath, sans-serif; background-color: transparent; font-weight: 700; font-style: normal; font-variant: normal; text-decoration-skip-ink: none; vertical-align: baseline; white-space: pre-wrap; text-decoration-color: currentcolor;&quot;&gt;ປະດິດ&lt;/span&gt;&lt;/p&gt;" style="rounded=1;whiteSpace=wrap;html=1;" parent="kAjX3kNmUyB3gXyYBEr3-2" vertex="1">
          <mxGeometry width="200" height="140" as="geometry" />
        </mxCell>
        <mxCell id="kAjX3kNmUyB3gXyYBEr3-1" value="" style="endArrow=none;html=1;rounded=0;exitX=0;exitY=0.25;exitDx=0;exitDy=0;entryX=1;entryY=0.25;entryDx=0;entryDy=0;" edge="1" parent="kAjX3kNmUyB3gXyYBEr3-2" source="yj0HGoABKljQMS_cgf4L-2" target="yj0HGoABKljQMS_cgf4L-2">
          <mxGeometry width="50" height="50" relative="1" as="geometry">
            <mxPoint x="77.27272727272727" y="196" as="sourcePoint" />
            <mxPoint x="122.72727272727272" y="149.33333333333334" as="targetPoint" />
          </mxGeometry>
        </mxCell>
        <mxCell id="kAjX3kNmUyB3gXyYBEr3-3" value="&lt;b&gt;&lt;font style=&quot;font-size: 14px;&quot;&gt;ຜຸ້ໃຫ້ບໍລິການ&lt;/font&gt;&lt;/b&gt;" style="rounded=0;whiteSpace=wrap;html=1;" vertex="1" parent="1">
          <mxGeometry x="40" y="200" width="160" height="60" as="geometry" />
        </mxCell>
      </root>
    </mxGraphModel>
  </diagram>
</mxfile>
